<?xml version="1.0" encoding="UTF-8"?>
<!DOCTYPE svg PUBLIC "-//W3C//DTD SVG 1.1//EN" "http://www.w3.org/Graphics/SVG/1.1/DTD/svg11.dtd">
<svg xmlns="http://www.w3.org/2000/svg" version="1.1" width="192px" height="192px" style="shape-rendering:geometricPrecision; text-rendering:geometricPrecision; image-rendering:optimizeQuality; fill-rule:evenodd; clip-rule:evenodd" xmlns:xlink="http://www.w3.org/1999/xlink">
<g><path style="opacity:1" fill="#e5eff7" d="M -0.5,-0.5 C 0.166667,-0.5 0.833333,-0.5 1.5,-0.5C 1.5,63.5 1.5,127.5 1.5,191.5C 0.833333,191.5 0.166667,191.5 -0.5,191.5C -0.5,127.5 -0.5,63.5 -0.5,-0.5 Z"/></g>
<g><path style="opacity:1" fill="#036ab4" d="M 1.5,-0.5 C 64.1667,-0.5 126.833,-0.5 189.5,-0.5C 189.5,63.5 189.5,127.5 189.5,191.5C 126.833,191.5 64.1667,191.5 1.5,191.5C 1.5,127.5 1.5,63.5 1.5,-0.5 Z"/></g>
<g><path style="opacity:1" fill="#fcfcfc" d="M 15.5,14.5 C 68.8333,14.5 122.167,14.5 175.5,14.5C 175.168,67.6693 175.501,120.669 176.5,173.5C 176.5,173.833 176.5,174.167 176.5,174.5C 122.833,174.5 69.1667,174.5 15.5,174.5C 15.5,121.167 15.5,67.8333 15.5,14.5 Z"/></g>
<g><path style="opacity:1" fill="#dde9f4" d="M 15.5,14.5 C 15.5,14.1667 15.5,13.8333 15.5,13.5C 69.1667,13.5 122.833,13.5 176.5,13.5C 176.5,66.8333 176.5,120.167 176.5,173.5C 175.501,120.669 175.168,67.6693 175.5,14.5C 122.167,14.5 68.8333,14.5 15.5,14.5 Z"/></g>
<g><path style="opacity:1" fill="#1f1f1d" d="M 39.5,25.5 C 47.1865,24.68 53.5198,27.18 58.5,33C 66.5,33.6667 74.5,33.6667 82.5,33C 87.2043,26.4896 93.5377,24.1563 101.5,26C 104.756,27.4589 107.423,29.6255 109.5,32.5C 117.833,33.8333 126.167,33.8333 134.5,32.5C 142.314,23.9362 150.814,23.2695 160,30.5C 165.993,38.4611 165.993,46.4611 160,54.5C 150.743,61.767 142.243,61.1003 134.5,52.5C 126.167,51.1667 117.833,51.1667 109.5,52.5C 106.188,57.0708 101.688,59.0708 96,58.5C 90.1576,59.1624 85.6576,56.9957 82.5,52C 74.5,51.3333 66.5,51.3333 58.5,52C 53.4971,55.9939 51.4971,61.3272 52.5,68C 52.6667,71.8333 52.8333,75.6667 53,79.5C 55.5,80.6667 57.3333,82.5 58.5,85C 66.5208,85.8316 74.5208,85.6649 82.5,84.5C 88.0233,77.4672 95.0233,75.6339 103.5,79C 106.128,80.6255 108.461,82.6255 110.5,85C 118.167,85.6667 125.833,85.6667 133.5,85C 140.085,76.998 148.085,75.3313 157.5,80C 164.487,85.815 166.321,92.9816 163,101.5C 161.691,103.976 159.858,105.976 157.5,107.5C 156.335,115.479 156.168,123.479 157,131.5C 165.988,139.546 166.821,148.379 159.5,158C 150.306,164.681 141.973,163.847 134.5,155.5C 126.167,154.167 117.833,154.167 109.5,155.5C 102.495,163.21 94.4947,164.376 85.5,159C 76.9662,149.005 77.6329,139.672 87.5,131C 96.0257,126.812 103.359,128.312 109.5,135.5C 117.833,136.833 126.167,136.833 134.5,135.5C 135.167,134.167 136.167,133.167 137.5,132.5C 138.665,124.187 138.832,115.853 138,107.5C 136.5,106 135,104.5 133.5,103C 125.833,102.333 118.167,102.333 110.5,103C 103.794,110.805 95.7939,112.472 86.5,108C 82.3438,103.437 77.0105,101.604 70.5,102.5C 66.5,102.667 62.5,102.833 58.5,103C 50.4223,111.898 41.5889,112.731 32,105.5C 25.3531,96.3509 26.1864,88.0176 34.5,80.5C 35.6649,72.5208 35.8316,64.5208 35,56.5C 23.9553,44.3128 25.4553,33.9795 39.5,25.5 Z"/></g>
<g><path style="opacity:1" fill="#e5eff7" d="M 189.5,-0.5 C 190.167,-0.5 190.833,-0.5 191.5,-0.5C 191.5,63.5 191.5,127.5 191.5,191.5C 190.833,191.5 190.167,191.5 189.5,191.5C 189.5,127.5 189.5,63.5 189.5,-0.5 Z"/></g>
<g><path style="opacity:1" fill="#08a0e3" d="M 43.5,128.5 C 50.0896,133.419 56.0896,139.086 61.5,145.5C 56.1667,151.5 50.5,157.167 44.5,162.5C 38.5,157.167 32.8333,151.5 27.5,145.5C 32.855,139.813 38.1883,134.146 43.5,128.5 Z"/></g>
<g><path style="opacity:1" fill="#9ac1e1" d="M 15.5,13.5 C 15.5,13.8333 15.5,14.1667 15.5,14.5C 15.5,67.8333 15.5,121.167 15.5,174.5C 69.1667,174.5 122.833,174.5 176.5,174.5C 122.669,175.499 68.6692,175.832 14.5,175.5C 14.1677,121.331 14.501,67.3308 15.5,13.5 Z"/></g>
</svg>
